Coordinates
version=1
nRows=10
nColumns=34
inDegrees=yes

Units are S.I. units (second, meters, Newtons, ...)
If the header above contains a line with 'inDegrees', this indicates whether rotational values are in degrees (yes) or radians (no).

endheader
time	pelvis_tilt	pelvis_list	pelvis_rotation	pelvis_tx	pelvis_ty	pelvis_tz	hip_flexion_r	hip_adduction_r	hip_rotation_r	knee_angle_r	ankle_angle_r	subtalar_angle_r	mtp_angle_r	hip_flexion_l	hip_adduction_l	hip_rotation_l	knee_angle_l	ankle_angle_l	subtalar_angle_l	mtp_angle_l	lumbar_extension	lumbar_bending	lumbar_rotation	arm_flex_r	arm_add_r	arm_rot_r	elbow_flex_r	pro_sup_r	arm_flex_l	arm_add_l	arm_rot_l	elbow_flex_l	pro_sup_l
      0.00000000	     -7.93296150	      1.08064359	     -3.65657293	      0.01957875	      1.28792329	     -0.09778009	      2.60474264	     -0.94850090	      2.21175408	      1.66785588	      5.30050886	    -10.85372167	      0.00000000	      3.79960818	     -0.16383149	      4.21769616	      3.72455798	      9.40047208	     -3.22576215	      0.00000000	      4.96190393	      1.07253309	     -1.45789668	    -33.03862517	    -32.24801121	     21.70596009	     99.86984579	     88.75351433	    -30.92540828	    -31.29520077	     21.07239573	     98.38795781	     86.61613759
      0.01666670	     -9.66536016	      0.82230424	     -3.34862050	      0.02019387	      1.28154868	     -0.09805022	      4.04849394	     -0.34579149	      2.82706175	      1.14459980	      8.02215201	     -7.60103036	      0.00000000	      5.70881747	     -0.06213198	      5.68635290	      3.80780935	      8.81962913	     -2.83174982	      0.00000000	      8.11862786	      1.40501690	     -0.40594783	    -35.83721257	    -34.04884589	     22.48410877	    102.70332405	     89.90740796	    -31.23691194	    -32.73384983	     23.77220562	    102.22300474	     86.89920006
      0.03333330	     -9.86417695	      0.99669600	     -3.47127035	      0.01981217	      1.28003740	     -0.09753093	      3.81088800	     -0.44072873	      3.04764772	      0.00000000	      8.52921646	     -7.52522726	      0.00000000	      5.85462250	      0.28222861	      5.57159108	      3.92191934	      8.91163908	     -2.85919293	      0.00000000	      8.37548764	      1.02800109	     -0.33713057	    -35.95782671	    -34.16873332	     22.36423326	    102.84800557	     89.96570252	    -31.35937009	    -32.90148796	     23.91264762	    102.52361188	     86.91745787
      0.05000000	    -10.16926563	      1.25996806	     -3.41399673	      0.01948895	      1.28099897	     -0.09710449	      4.21588138	     -0.73333220	      2.38467990	      0.00000000	      9.53740794	     -5.78588467	      0.00000000	      5.81615621	      0.62751373	      5.76746408	      3.44659524	      8.74715046	     -2.64065764	      0.00000000	      9.53275634	      0.58491468	      0.75617971	    -37.49947302	    -33.14627500	     21.08778571	    102.46465684	     92.07573829	    -29.71259421	    -34.69620546	     26.94601697	    102.81153634	     87.53696040
      0.06666670	    -10.17167252	      1.25085480	     -3.40659195	      0.01885076	      1.28233389	     -0.09662630	      4.27648685	     -0.67875628	      2.39158033	      0.00000000	      9.54001014	     -5.78411487	      0.00000000	      5.75950943	      0.69191579	      5.76939141	      3.45522600	      8.74849246	     -2.63983361	      0.00000000	      9.53617179	      0.58714658	      0.75685302	    -37.49563234	    -33.14377599	     21.08816941	    102.46513906	     92.07721378	    -29.70573080	    -34.69828555	     26.94365016	    102.80890873	     87.53706034
      0.08333330	    -10.13795966	      1.40385209	     -3.71750506	      0.01896150	      1.28226944	     -0.09559858	      4.22775598	     -0.75790583	      2.93986168	      0.00000000	      9.49118091	     -5.80239375	      0.00000000	      5.40175743	      0.81247120	      5.66858306	      2.98985625	      8.42943566	     -2.91068289	      0.00000000	      9.66323623	      0.51307608	      1.44482032	    -37.25957121	    -32.82899871	     21.54922985	    101.96778697	     92.35778715	    -29.10431688	    -35.00340999	     27.01105604	    102.11448601	     87.58303769
      0.10000000	    -10.15319233	      1.41004490	     -3.73958977	      0.01861490	      1.28265611	     -0.09584088	      4.18181115	     -0.77705462	      2.93171022	      0.00000000	      9.48871566	     -5.80717836	      0.00000000	      5.43431694	      0.79615964	      5.67139670	      2.97458127	      8.42825458	     -2.91046784	      0.00000000	      9.66586377	      0.51590155	      1.44634626	    -37.25218000	    -32.83017254	     21.54794322	    101.96843589	     92.35886602	    -29.09751121	    -35.00549267	     27.01123509	    102.11430643	     87.58319609
      0.11666670	    -10.09942315	      1.57653784	     -3.86959455	      0.01841480	      1.27908822	     -0.09571677	      4.16416053	     -0.96374896	      2.76664798	      0.00000000	      9.03823717	     -6.11983289	      0.00000000	      5.42113867	      0.95782908	      5.71100162	      2.82901378	      8.19248619	     -3.15658922	      0.00000000	      9.67684455	      0.45837905	      1.75154515	    -36.94430213	    -32.96984460	     21.84462111	    102.22718616	     92.57198564	    -28.52351831	    -35.27447691	     27.29892612	    102.21982261	     87.61109722
      0.13333330	    -10.08961001	      1.58618976	     -3.88024468	      0.01822787	      1.28120044	     -0.09535676	      4.15382955	     -0.98293633	      2.76535108	      0.00000000	      9.04145151	     -6.12398709	      0.00000000	      5.45059289	      0.93254316	      5.71703188	      2.81474615	      8.19292453	     -3.15703881	      0.00000000	      9.67432452	      0.45976963	      1.75416440	    -36.94783853	    -32.97109838	     21.84704118	    102.22722960	     92.57325138	    -28.52656925	    -35.27479767	     27.30292201	    102.21998645	     87.61118913
      0.15000000	    -10.06852801	      1.59018094	     -3.89308942	      0.01679994	      1.28004339	     -0.09550273	      4.14348241	     -1.01088487	      2.77026747	      0.00000000	      9.04514153	     -6.12484693	      0.00000000	      5.48596069	      0.90639459	      5.72524675	      2.79486658	      8.19344033	     -3.15684830	      0.00000000	      9.66976490	      0.46218035	      1.75666026	    -36.95098022	    -32.97118759	     21.85056349	    102.22816720	     92.57445011	    -28.52786108	    -35.27524786	     27.30589310	    102.22134309	     87.61111210
